<svg height='100px' width='100px'  fill="#0070cd" xmlns="http://www.w3.org/2000/svg" xmlns:xlink="http://www.w3.org/1999/xlink" version="1.1" x="0px" y="0px" viewBox="0 0 100 100" style="enable-background:new 0 0 100 100;" xml:space="preserve"><path d="M74.4,98.9H25.6c-13.5,0-24.5-11-24.5-24.5V25.6c0-13.5,11-24.5,24.5-24.5h48.8c13.5,0,24.5,11,24.5,24.5  v48.8C98.9,87.9,87.9,98.9,74.4,98.9z M25.6,5.6c-11,0-20,9-20,20v48.8c0,11,9,20,20,20h48.8c11,0,20-9,20-20V25.6c0-11-9-20-20-20  H25.6z"></path><path d="M73.6,37.1H27.5c-1.5,0-2.7-1.2-2.7-2.7c0-1.5,1.2-2.7,2.7-2.7h46.1c1.5,0,2.7,1.2,2.7,2.7  C76.3,35.8,75.1,37.1,73.6,37.1z"></path><path d="M73.1,68.8H27c-1.5,0-2.7-1.2-2.7-2.7c0-1.5,1.2-2.7,2.7-2.7h46.1c1.5,0,2.7,1.2,2.7,2.7  C75.9,67.6,74.6,68.8,73.1,68.8z"></path><path d="M73.1,53.1H27c-1.5,0-2.7-1.2-2.7-2.7c0-1.5,1.2-2.7,2.7-2.7h46.1c1.5,0,2.7,1.2,2.7,2.7  C75.9,51.8,74.6,53.1,73.1,53.1z"></path></svg>