<svg height='100px' width='100px'  fill="#FFFFFF" xmlns="http://www.w3.org/2000/svg" xmlns:xlink="http://www.w3.org/1999/xlink" version="1.1" x="0px" y="0px" viewBox="0 0 100 100" style="enable-background:new 0 0 100 100;" xml:space="preserve"><g><g><g><g><path d="M38,39.4c-3.3,0-6-2.7-6-5.9c0-3.3,2.7-5.9,6-5.9s6,2.7,6,5.9C44,36.7,41.3,39.4,38,39.4z M38,30.5c-1.7,0-3,1.3-3,2.9      c0,1.6,1.3,2.9,3,2.9s3-1.3,3-2.9C41,31.8,39.7,30.5,38,30.5z"></path></g></g><g><g><path d="M33.5,34.8H26c-0.8,0-1.5-0.7-1.5-1.5s0.7-1.5,1.5-1.5h7.5c0.8,0,1.5,0.7,1.5,1.5S34.3,34.8,33.5,34.8z"></path></g></g><g><g><path d="M74,34.8H42.5c-0.8,0-1.5-0.7-1.5-1.5s0.7-1.5,1.5-1.5H74c0.8,0,1.5,0.7,1.5,1.5S74.8,34.8,74,34.8z"></path></g></g></g><g><g><g><path d="M65,55.9c-3.3,0-6-2.7-6-5.9c0-3.3,2.7-5.9,6-5.9s6,2.7,6,5.9C71,53.3,68.3,55.9,65,55.9z M65,47.1c-1.7,0-3,1.3-3,2.9      c0,1.6,1.3,2.9,3,2.9s3-1.3,3-2.9C68,48.4,66.7,47.1,65,47.1z"></path></g></g><g><g><path d="M60.5,51.4H26c-0.8,0-1.5-0.7-1.5-1.5s0.7-1.5,1.5-1.5h34.5c0.8,0,1.5,0.7,1.5,1.5S61.3,51.4,60.5,51.4z"></path></g></g><g><g><path d="M74,51.4h-4.5c-0.8,0-1.5-0.7-1.5-1.5s0.7-1.5,1.5-1.5H74c0.8,0,1.5,0.7,1.5,1.5S74.8,51.4,74,51.4z"></path></g></g></g><g><g><g><path d="M45.9,72.5c-3.3,0-6-2.7-6-5.9s2.7-5.9,6-5.9s6,2.7,6,5.9S49.2,72.5,45.9,72.5z M45.9,63.7c-1.7,0-3,1.3-3,2.9      s1.3,2.9,3,2.9s3-1.3,3-2.9S47.5,63.7,45.9,63.7z"></path></g></g><g><g><path d="M41.4,68H26c-0.8,0-1.5-0.7-1.5-1.5S25.2,65,26,65h15.4c0.8,0,1.5,0.7,1.5,1.5S42.2,68,41.4,68z"></path></g></g><g><g><path d="M74,68H50.4c-0.8,0-1.5-0.7-1.5-1.5s0.7-1.5,1.5-1.5H74c0.8,0,1.5,0.7,1.5,1.5S74.8,68,74,68z"></path></g></g></g></g></svg>