<?xml version="1.0" encoding="utf-8"?>
<!-- Generator: Adobe Illustrator 21.0.2, SVG Export Plug-In . SVG Version: 6.00 Build 0)  -->
<svg version="1.1" id="Layer_1" xmlns="http://www.w3.org/2000/svg" xmlns:xlink="http://www.w3.org/1999/xlink" x="0px" y="0px"
	 viewBox="0 0 131 64.8" style="enable-background:new 0 0 131 64.8;" xml:space="preserve">
<style type="text/css">
	.st0{opacity:0.6;fill:#FFFFFF;}
	.st1{fill:#FFFFFF;}
</style>
<g>
	<path class="st0" d="M7.1,8h72.3L82,6.1l1.1,0.8l0.3-2.7l2.4-0.9l1.9,0.2l1.1-1.9L93.9,0l1.4,0.9h1.1l0.3,1.4l-1.3,0.5l0.2,1.1
		l0.9-0.5l2.2,5.2L85.7,23.9l12.4,8.2l4.2,6.6l1.7,2l3.8,0.8l0.8,5.7l4.9,2.7l3.9-0.2l-1.4,1.3l2.7-0.3l1.7-1.3l7.2-2.2l0.3-3.9
		l-1.3-2.7l-1.4,2.2l-0.3-5.2l-4.1-2.2l-0.2,1.9l-1.7-2.2l1.3-0.9l4.6,1.3l3.6,4.4l2,5.3l0.5,6.1l-1.1-3l-1.1,2l1.6,1.6
		c0,0-0.1,0.9-0.3,2c-0.2,1.6-0.5,3.5-0.5,3.5l-1.4,0.3l0.9-4.1l-0.8-0.8l-12.6,1.7l-0.8,1.3l-1.7,0.2l0.6-1.4l-1.7,1.6l-0.8,2.4
		l-5.7,0.5l-1.9,1.1l0.8-2l0.3-4.1l0.8-2.2l-1.7-2.2l-4.9,5.5l-3.6,0.5l-2.4,2.2l1.4,1.6l-2.4,1.9l-4.1,0.3l-0.9-4.7l-5.3-7.2
		l-2.4-0.5v-5.3h-2.4l0.2-4.7H0L7.1,8L7.1,8z"/>
	<polygon class="st1" points="66.9,18.2 66.4,21.2 68.4,22.4 67.8,24.3 70.2,27.3 68.9,28.3 68.9,30.8 70,31.1 70.2,33.6 72.7,36.1 
		73,38.8 76.8,39.1 79.6,37.4 80.7,38.3 88.6,34.7 87.9,33.3 88.9,32.5 90,33.6 91.7,32.7 93,32.7 95,35.3 96.1,34.9 96.7,37.7 
		102.6,38.6 103.2,37.2 104.3,38 103,39.4 105.6,38.3 103.7,35.5 100.7,30.2 98.6,28.1 95.3,26.7 94.1,25.3 92.2,25.9 93.6,26.5 
		94.1,27.6 92.2,27.8 91.7,26.7 91.1,27.3 90.1,26.5 90.8,25.7 89.2,25.6 90.3,24.2 92,23.5 91.1,21 91.9,19.5 92.2,20.7 93.8,20.7 
		93.1,19.6 93.3,18.8 94.7,18.8 95.2,17.9 96.7,17.1 95,15.4 100.5,13.6 101.9,12.1 101.9,13.3 103,13 103.5,11.3 104.8,10.5 
		104.8,9.1 103.5,9.5 103.5,8.4 102.1,8.4 101.2,9.9 98.5,10.3 99.3,9.4 97.5,8.8 97.1,7.7 96.3,8 95.8,6.9 90.9,9.2 90.8,11.6 
		89,11 86.8,12.5 85.1,12.5 84,12.1 83.1,13.5 81.8,14.4 81.8,16.3 79.4,16 78.2,14.7 76.5,14.7 75.5,16 74.1,16 72.5,13.6 
		70.6,15.1 70.8,17.1 69.8,17.9 70.3,19 68.7,19.1 66.9,18.2 	"/>
	<path class="st1" d="M0.2,64.4h4.1V47.5l7.4,11h0.1l7.4-11.1v16.9h4.1V40.8H19l-7.2,11.1L4.6,40.8H0.2V64.4L0.2,64.4z M27.8,64.4
		h4.2l2.4-5.7h11.1l2.4,5.7h4.4L42,40.6h-3.8L27.8,64.4L27.8,64.4z M36,55l4-9.4l4.1,9.4H36L36,55z M56.8,64.4H61v-7.6h4.7
		c5.2,0,9.4-2.8,9.4-8v-0.1c0-4.7-3.5-7.9-9-7.9h-9.3V64.4L56.8,64.4z M61,53v-8.5h4.8c3.1,0,5.1,1.4,5.1,4.2v0.1
		c0,2.5-2,4.2-5.1,4.2H61L61,53z M90.7,64.8c4.4,0,7.1-1.6,9.6-4.2l-2.7-2.7c-2,1.9-3.9,3.1-6.8,3.1c-4.5,0-7.8-3.8-7.8-8.4v-0.1
		c0-4.6,3.3-8.3,7.8-8.3c2.7,0,4.7,1.2,6.6,2.9l2.7-3.1c-2.3-2.2-4.9-3.7-9.2-3.7c-7.1,0-12.2,5.5-12.2,12.2v0.1
		C78.7,59.4,83.8,64.8,90.7,64.8L90.7,64.8z"/>
</g>
</svg>
